<mxfile host="app.diagrams.net" agent="Mozilla/5.0 (Windows NT 10.0; Win64; x64) AppleWebKit/537.36 (KHTML, like Gecko) Chrome/141.0.0.0 Safari/537.36" version="28.2.8">
  <diagram name="User&amp;System Flow" id="687kzjZMx_aQQYD2qw3M">
    <mxGraphModel dx="925" dy="1612" grid="1" gridSize="10" guides="1" tooltips="1" connect="1" arrows="1" fold="1" page="1" pageScale="1" pageWidth="850" pageHeight="1100" math="0" shadow="0">
      <root>
        <mxCell id="0" />
        <mxCell id="1" parent="0" />
        <mxCell id="GWtGGLu0bNhIFru9KCe_-3" value="" style="edgeStyle=none;curved=1;rounded=0;sketch=1;hachureGap=4;jiggle=2;curveFitting=1;orthogonalLoop=1;jettySize=auto;html=1;fontFamily=Architects Daughter;fontSource=https%3A%2F%2Ffonts.googleapis.com%2Fcss%3Ffamily%3DArchitects%2BDaughter;fontSize=12;startSize=8;endSize=8;" edge="1" parent="1" source="GWtGGLu0bNhIFru9KCe_-1" target="GWtGGLu0bNhIFru9KCe_-2">
          <mxGeometry relative="1" as="geometry" />
        </mxCell>
        <mxCell id="GWtGGLu0bNhIFru9KCe_-1" value="User logins to Cad Assist Homepage" style="rounded=1;whiteSpace=wrap;html=1;sketch=1;hachureGap=4;jiggle=2;curveFitting=1;fontFamily=Architects Daughter;fontSource=https%3A%2F%2Ffonts.googleapis.com%2Fcss%3Ffamily%3DArchitects%2BDaughter;fillColor=#dae8fc;strokeColor=#6c8ebf;" vertex="1" parent="1">
          <mxGeometry x="100" y="40" width="230" height="30" as="geometry" />
        </mxCell>
        <mxCell id="GWtGGLu0bNhIFru9KCe_-5" value="" style="edgeStyle=none;curved=1;rounded=0;sketch=1;hachureGap=4;jiggle=2;curveFitting=1;orthogonalLoop=1;jettySize=auto;html=1;fontFamily=Architects Daughter;fontSource=https%3A%2F%2Ffonts.googleapis.com%2Fcss%3Ffamily%3DArchitects%2BDaughter;fontSize=12;startSize=8;endSize=8;" edge="1" parent="1" source="GWtGGLu0bNhIFru9KCe_-2" target="GWtGGLu0bNhIFru9KCe_-4">
          <mxGeometry relative="1" as="geometry" />
        </mxCell>
        <mxCell id="GWtGGLu0bNhIFru9KCe_-2" value="User gets authenticated via Microsoft" style="rounded=1;whiteSpace=wrap;html=1;sketch=1;hachureGap=4;jiggle=2;curveFitting=1;fontFamily=Architects Daughter;fontSource=https%3A%2F%2Ffonts.googleapis.com%2Fcss%3Ffamily%3DArchitects%2BDaughter;fillColor=#ffe6cc;strokeColor=#d79b00;" vertex="1" parent="1">
          <mxGeometry x="95" y="110" width="240" height="30" as="geometry" />
        </mxCell>
        <mxCell id="GWtGGLu0bNhIFru9KCe_-7" value="" style="edgeStyle=none;curved=1;rounded=0;sketch=1;hachureGap=4;jiggle=2;curveFitting=1;orthogonalLoop=1;jettySize=auto;html=1;fontFamily=Architects Daughter;fontSource=https%3A%2F%2Ffonts.googleapis.com%2Fcss%3Ffamily%3DArchitects%2BDaughter;fontSize=12;startSize=8;endSize=8;" edge="1" parent="1" source="GWtGGLu0bNhIFru9KCe_-4">
          <mxGeometry relative="1" as="geometry">
            <mxPoint x="215" y="240" as="targetPoint" />
          </mxGeometry>
        </mxCell>
        <mxCell id="GWtGGLu0bNhIFru9KCe_-4" value="User selects a cat" style="rounded=1;whiteSpace=wrap;html=1;sketch=1;hachureGap=4;jiggle=2;curveFitting=1;fontFamily=Architects Daughter;fontSource=https%3A%2F%2Ffonts.googleapis.com%2Fcss%3Ffamily%3DArchitects%2BDaughter;fillColor=#dae8fc;strokeColor=#6c8ebf;" vertex="1" parent="1">
          <mxGeometry x="150" y="170" width="130" height="30" as="geometry" />
        </mxCell>
        <mxCell id="jzoCYvsTz74_aXdgT_wm-2" value="" style="edgeStyle=none;curved=1;rounded=0;sketch=1;hachureGap=4;jiggle=2;curveFitting=1;orthogonalLoop=1;jettySize=auto;html=1;fontFamily=Architects Daughter;fontSource=https%3A%2F%2Ffonts.googleapis.com%2Fcss%3Ffamily%3DArchitects%2BDaughter;fontSize=12;startSize=8;endSize=8;" edge="1" parent="1" source="GWtGGLu0bNhIFru9KCe_-6" target="jzoCYvsTz74_aXdgT_wm-1">
          <mxGeometry relative="1" as="geometry" />
        </mxCell>
        <mxCell id="GWtGGLu0bNhIFru9KCe_-6" value="Get UserEmail from Microsoft authentication" style="rounded=1;whiteSpace=wrap;html=1;sketch=1;hachureGap=4;jiggle=2;curveFitting=1;fontFamily=Architects Daughter;fontSource=https%3A%2F%2Ffonts.googleapis.com%2Fcss%3Ffamily%3DArchitects%2BDaughter;fillColor=#ffe6cc;strokeColor=#d79b00;" vertex="1" parent="1">
          <mxGeometry x="70" y="240" width="290" height="30" as="geometry" />
        </mxCell>
        <mxCell id="jzoCYvsTz74_aXdgT_wm-1" value="Send UserEmail to ___" style="rounded=1;whiteSpace=wrap;html=1;sketch=1;hachureGap=4;jiggle=2;curveFitting=1;fontFamily=Architects Daughter;fontSource=https%3A%2F%2Ffonts.googleapis.com%2Fcss%3Ffamily%3DArchitects%2BDaughter;fillColor=#ffe6cc;strokeColor=#d79b00;" vertex="1" parent="1">
          <mxGeometry x="135" y="310" width="160" height="30" as="geometry" />
        </mxCell>
        <mxCell id="jzoCYvsTz74_aXdgT_wm-14" value="" style="endArrow=classic;html=1;rounded=0;sketch=1;hachureGap=4;jiggle=2;curveFitting=1;fontFamily=Architects Daughter;fontSource=https%3A%2F%2Ffonts.googleapis.com%2Fcss%3Ffamily%3DArchitects%2BDaughter;fontSize=12;startSize=8;endSize=8;curved=1;exitX=0.5;exitY=1;exitDx=0;exitDy=0;" edge="1" parent="1" source="jzoCYvsTz74_aXdgT_wm-15">
          <mxGeometry width="50" height="50" relative="1" as="geometry">
            <mxPoint x="1010" y="-100" as="sourcePoint" />
            <mxPoint x="1010" y="-15" as="targetPoint" />
          </mxGeometry>
        </mxCell>
        <mxCell id="jzoCYvsTz74_aXdgT_wm-28" value="&lt;span style=&quot;text-wrap-mode: wrap; background-color: rgb(236, 236, 236);&quot;&gt;Job failure event&lt;/span&gt;" style="edgeLabel;html=1;align=center;verticalAlign=middle;resizable=0;points=[];fontSize=12;sketch=1;hachureGap=4;jiggle=2;curveFitting=1;fontFamily=Architects Daughter;fontSource=https%3A%2F%2Ffonts.googleapis.com%2Fcss%3Ffamily%3DArchitects%2BDaughter;" vertex="1" connectable="0" parent="jzoCYvsTz74_aXdgT_wm-14">
          <mxGeometry x="0.0824" y="2" relative="1" as="geometry">
            <mxPoint x="-2" y="-9" as="offset" />
          </mxGeometry>
        </mxCell>
        <mxCell id="jzoCYvsTz74_aXdgT_wm-15" value="Job Orchestrator" style="rounded=1;whiteSpace=wrap;html=1;sketch=1;hachureGap=4;jiggle=2;curveFitting=1;fontFamily=Architects Daughter;fontSource=https%3A%2F%2Ffonts.googleapis.com%2Fcss%3Ffamily%3DArchitects%2BDaughter;fillColor=#ffe6cc;strokeColor=#d79b00;" vertex="1" parent="1">
          <mxGeometry x="953" y="-150" width="110" height="30" as="geometry" />
        </mxCell>
        <mxCell id="jzoCYvsTz74_aXdgT_wm-17" value="Problem Solver Agent" style="text;html=1;whiteSpace=wrap;strokeColor=none;fillColor=none;align=center;verticalAlign=middle;rounded=0;fontSize=16;fontFamily=Architects Daughter;fontSource=https%3A%2F%2Ffonts.googleapis.com%2Fcss%3Ffamily%3DArchitects%2BDaughter;" vertex="1" parent="1">
          <mxGeometry x="760" y="-50" width="180" height="30" as="geometry" />
        </mxCell>
        <mxCell id="jzoCYvsTz74_aXdgT_wm-44" style="edgeStyle=none;curved=1;rounded=0;sketch=1;hachureGap=4;jiggle=2;curveFitting=1;orthogonalLoop=1;jettySize=auto;html=1;entryX=0.5;entryY=0;entryDx=0;entryDy=0;fontFamily=Architects Daughter;fontSource=https%3A%2F%2Ffonts.googleapis.com%2Fcss%3Ffamily%3DArchitects%2BDaughter;fontSize=12;startSize=8;endSize=8;" edge="1" parent="1" source="jzoCYvsTz74_aXdgT_wm-25" target="jzoCYvsTz74_aXdgT_wm-26">
          <mxGeometry relative="1" as="geometry" />
        </mxCell>
        <mxCell id="jzoCYvsTz74_aXdgT_wm-25" value="Get triggered by job failure event" style="rounded=1;whiteSpace=wrap;html=1;sketch=1;hachureGap=4;jiggle=2;curveFitting=1;fontFamily=Architects Daughter;fontSource=https%3A%2F%2Ffonts.googleapis.com%2Fcss%3Ffamily%3DArchitects%2BDaughter;fillColor=#f8cecc;strokeColor=#b85450;" vertex="1" parent="1">
          <mxGeometry x="855" y="10" width="235" height="30" as="geometry" />
        </mxCell>
        <mxCell id="jzoCYvsTz74_aXdgT_wm-33" value="" style="edgeStyle=none;curved=1;rounded=0;sketch=1;hachureGap=4;jiggle=2;curveFitting=1;orthogonalLoop=1;jettySize=auto;html=1;fontFamily=Architects Daughter;fontSource=https%3A%2F%2Ffonts.googleapis.com%2Fcss%3Ffamily%3DArchitects%2BDaughter;fontSize=12;startSize=8;endSize=8;" edge="1" parent="1" source="jzoCYvsTz74_aXdgT_wm-26" target="jzoCYvsTz74_aXdgT_wm-32">
          <mxGeometry relative="1" as="geometry" />
        </mxCell>
        <mxCell id="jzoCYvsTz74_aXdgT_wm-26" value="Search for similar problems from ___" style="rounded=1;whiteSpace=wrap;html=1;sketch=1;hachureGap=4;jiggle=2;curveFitting=1;fontFamily=Architects Daughter;fontSource=https%3A%2F%2Ffonts.googleapis.com%2Fcss%3Ffamily%3DArchitects%2BDaughter;fillColor=#f8cecc;strokeColor=#b85450;" vertex="1" parent="1">
          <mxGeometry x="850" y="70" width="245" height="37" as="geometry" />
        </mxCell>
        <mxCell id="jzoCYvsTz74_aXdgT_wm-36" value="" style="edgeStyle=none;curved=1;rounded=0;sketch=1;hachureGap=4;jiggle=2;curveFitting=1;orthogonalLoop=1;jettySize=auto;html=1;fontFamily=Architects Daughter;fontSource=https%3A%2F%2Ffonts.googleapis.com%2Fcss%3Ffamily%3DArchitects%2BDaughter;fontSize=12;startSize=8;endSize=8;" edge="1" parent="1" source="jzoCYvsTz74_aXdgT_wm-32" target="jzoCYvsTz74_aXdgT_wm-35">
          <mxGeometry relative="1" as="geometry" />
        </mxCell>
        <mxCell id="jzoCYvsTz74_aXdgT_wm-38" value="" style="edgeStyle=none;curved=1;rounded=0;sketch=1;hachureGap=4;jiggle=2;curveFitting=1;orthogonalLoop=1;jettySize=auto;html=1;fontFamily=Architects Daughter;fontSource=https%3A%2F%2Ffonts.googleapis.com%2Fcss%3Ffamily%3DArchitects%2BDaughter;fontSize=12;startSize=8;endSize=8;" edge="1" parent="1" source="jzoCYvsTz74_aXdgT_wm-32" target="jzoCYvsTz74_aXdgT_wm-35">
          <mxGeometry relative="1" as="geometry" />
        </mxCell>
        <mxCell id="jzoCYvsTz74_aXdgT_wm-41" value="Yes" style="edgeLabel;html=1;align=center;verticalAlign=middle;resizable=0;points=[];fontSize=12;sketch=1;hachureGap=4;jiggle=2;curveFitting=1;fontFamily=Architects Daughter;fontSource=https%3A%2F%2Ffonts.googleapis.com%2Fcss%3Ffamily%3DArchitects%2BDaughter;labelBorderColor=none;labelBackgroundColor=#E6E6E6;" vertex="1" connectable="0" parent="jzoCYvsTz74_aXdgT_wm-38">
          <mxGeometry x="-0.1101" relative="1" as="geometry">
            <mxPoint y="-1" as="offset" />
          </mxGeometry>
        </mxCell>
        <mxCell id="jzoCYvsTz74_aXdgT_wm-40" value="" style="edgeStyle=none;curved=1;rounded=0;sketch=1;hachureGap=4;jiggle=2;curveFitting=1;orthogonalLoop=1;jettySize=auto;html=1;fontFamily=Architects Daughter;fontSource=https%3A%2F%2Ffonts.googleapis.com%2Fcss%3Ffamily%3DArchitects%2BDaughter;fontSize=12;startSize=8;endSize=8;entryX=0.25;entryY=0;entryDx=0;entryDy=0;" edge="1" parent="1" source="jzoCYvsTz74_aXdgT_wm-32" target="jzoCYvsTz74_aXdgT_wm-39">
          <mxGeometry relative="1" as="geometry" />
        </mxCell>
        <mxCell id="jzoCYvsTz74_aXdgT_wm-43" value="No" style="edgeLabel;html=1;align=center;verticalAlign=middle;resizable=0;points=[];fontSize=12;sketch=1;hachureGap=4;jiggle=2;curveFitting=1;fontFamily=Architects Daughter;fontSource=https%3A%2F%2Ffonts.googleapis.com%2Fcss%3Ffamily%3DArchitects%2BDaughter;labelBackgroundColor=#E6E6E6;" vertex="1" connectable="0" parent="jzoCYvsTz74_aXdgT_wm-40">
          <mxGeometry x="0.0791" relative="1" as="geometry">
            <mxPoint x="-7" y="-5" as="offset" />
          </mxGeometry>
        </mxCell>
        <mxCell id="jzoCYvsTz74_aXdgT_wm-32" value="Known error?" style="rhombus;whiteSpace=wrap;html=1;fontFamily=Architects Daughter;fillColor=#f8cecc;strokeColor=#b85450;rounded=1;sketch=1;hachureGap=4;jiggle=2;curveFitting=1;fontSource=https%3A%2F%2Ffonts.googleapis.com%2Fcss%3Ffamily%3DArchitects%2BDaughter;" vertex="1" parent="1">
          <mxGeometry x="932.5" y="135" width="80" height="55" as="geometry" />
        </mxCell>
        <mxCell id="jzoCYvsTz74_aXdgT_wm-49" style="edgeStyle=none;curved=1;rounded=0;sketch=1;hachureGap=4;jiggle=2;curveFitting=1;orthogonalLoop=1;jettySize=auto;html=1;fontFamily=Architects Daughter;fontSource=https%3A%2F%2Ffonts.googleapis.com%2Fcss%3Ffamily%3DArchitects%2BDaughter;fontSize=12;startSize=8;endSize=8;entryX=0;entryY=0.5;entryDx=0;entryDy=0;" edge="1" parent="1" source="jzoCYvsTz74_aXdgT_wm-35" target="jzoCYvsTz74_aXdgT_wm-51">
          <mxGeometry relative="1" as="geometry">
            <mxPoint x="990" y="360" as="targetPoint" />
          </mxGeometry>
        </mxCell>
        <mxCell id="jzoCYvsTz74_aXdgT_wm-35" value="Performs a new diagnosis" style="whiteSpace=wrap;html=1;fontFamily=Architects Daughter;fillColor=#f8cecc;strokeColor=#b85450;rounded=1;sketch=1;hachureGap=4;jiggle=2;curveFitting=1;fontSource=https%3A%2F%2Ffonts.googleapis.com%2Fcss%3Ffamily%3DArchitects%2BDaughter;" vertex="1" parent="1">
          <mxGeometry x="781.25" y="210" width="180" height="30" as="geometry" />
        </mxCell>
        <mxCell id="jzoCYvsTz74_aXdgT_wm-52" value="" style="edgeStyle=none;curved=1;rounded=0;sketch=1;hachureGap=4;jiggle=2;curveFitting=1;orthogonalLoop=1;jettySize=auto;html=1;fontFamily=Architects Daughter;fontSource=https%3A%2F%2Ffonts.googleapis.com%2Fcss%3Ffamily%3DArchitects%2BDaughter;fontSize=12;startSize=8;endSize=8;entryX=1;entryY=0.5;entryDx=0;entryDy=0;exitX=0.25;exitY=1;exitDx=0;exitDy=0;" edge="1" parent="1" source="jzoCYvsTz74_aXdgT_wm-39" target="jzoCYvsTz74_aXdgT_wm-51">
          <mxGeometry relative="1" as="geometry">
            <mxPoint x="1020" y="323" as="targetPoint" />
          </mxGeometry>
        </mxCell>
        <mxCell id="jzoCYvsTz74_aXdgT_wm-39" value="retrieves the solution from ___" style="whiteSpace=wrap;html=1;fontFamily=Architects Daughter;fillColor=#f8cecc;strokeColor=#b85450;rounded=1;sketch=1;hachureGap=4;jiggle=2;curveFitting=1;fontSource=https%3A%2F%2Ffonts.googleapis.com%2Fcss%3Ffamily%3DArchitects%2BDaughter;" vertex="1" parent="1">
          <mxGeometry x="990" y="210" width="210" height="30" as="geometry" />
        </mxCell>
        <mxCell id="jzoCYvsTz74_aXdgT_wm-46" value="&lt;span style=&quot;text-align: left;&quot;&gt;The diagnosis and resolution details are logged in the ___&lt;/span&gt;" style="whiteSpace=wrap;html=1;fontFamily=Architects Daughter;fillColor=#f8cecc;strokeColor=#b85450;rounded=1;sketch=1;hachureGap=4;jiggle=2;curveFitting=1;fontSource=https%3A%2F%2Ffonts.googleapis.com%2Fcss%3Ffamily%3DArchitects%2BDaughter;" vertex="1" parent="1">
          <mxGeometry x="789.5" y="310" width="370" height="30" as="geometry" />
        </mxCell>
        <mxCell id="jzoCYvsTz74_aXdgT_wm-54" style="edgeStyle=none;curved=1;rounded=0;sketch=1;hachureGap=4;jiggle=2;curveFitting=1;orthogonalLoop=1;jettySize=auto;html=1;entryX=0.5;entryY=0;entryDx=0;entryDy=0;fontFamily=Architects Daughter;fontSource=https%3A%2F%2Ffonts.googleapis.com%2Fcss%3Ffamily%3DArchitects%2BDaughter;fontSize=12;startSize=8;endSize=8;" edge="1" parent="1" source="jzoCYvsTz74_aXdgT_wm-51" target="jzoCYvsTz74_aXdgT_wm-46">
          <mxGeometry relative="1" as="geometry" />
        </mxCell>
        <mxCell id="jzoCYvsTz74_aXdgT_wm-51" value="" style="ellipse;whiteSpace=wrap;html=1;fontFamily=Architects Daughter;fillColor=#f8cecc;strokeColor=#b85450;rounded=1;sketch=1;hachureGap=4;jiggle=2;curveFitting=1;fontSource=https%3A%2F%2Ffonts.googleapis.com%2Fcss%3Ffamily%3DArchitects%2BDaughter;" vertex="1" parent="1">
          <mxGeometry x="964.5" y="258" width="22.5" height="25" as="geometry" />
        </mxCell>
        <mxCell id="jzoCYvsTz74_aXdgT_wm-57" value="receptionist" style="text;whiteSpace=wrap;fontFamily=Architects Daughter;fontSource=https%3A%2F%2Ffonts.googleapis.com%2Fcss%3Ffamily%3DArchitects%2BDaughter;" vertex="1" parent="1">
          <mxGeometry x="530" y="430" width="100" height="40" as="geometry" />
        </mxCell>
      </root>
    </mxGraphModel>
  </diagram>
</mxfile>
